<?xml version="1.0" encoding="UTF-8"?>
<!DOCTYPE svg PUBLIC "-//W3C//DTD SVG 1.1//EN" "http://www.w3.org/Graphics/SVG/1.1/DTD/svg11.dtd">
<svg xmlns="http://www.w3.org/2000/svg" version="1.1" width="512px" height="512px" style="shape-rendering:geometricPrecision; text-rendering:geometricPrecision; image-rendering:optimizeQuality; fill-rule:evenodd; clip-rule:evenodd" xmlns:xlink="http://www.w3.org/1999/xlink">
<g><path style="opacity:0.879" fill="#00a9e0" d="M 46.5,46.5 C 151.587,46.4175 243.253,80.9175 321.5,150C 324.683,153.015 327.683,156.182 330.5,159.5C 327.91,164.349 325.576,169.349 323.5,174.5C 322.635,175.583 321.635,175.749 320.5,175C 248.7,107.619 163.366,70.4521 64.5,63.5C 67.3411,104.372 76.6745,143.705 92.5,181.5C 89.4151,187.322 85.5818,192.656 81,197.5C 57.2442,150.044 45.7442,99.7103 46.5,46.5 Z"/></g>
<g><path style="opacity:0.877" fill="#00a9e0" d="M 442.5,46.5 C 449.833,46.5 457.167,46.5 464.5,46.5C 466.235,92.9653 459.068,137.965 443,181.5C 422.257,237.198 392.09,287.031 352.5,331C 350.833,331.667 349.167,331.667 347.5,331C 342.951,328.772 338.617,326.272 334.5,323.5C 402.119,250.564 439.452,164.23 446.5,64.5C 405.406,67.3155 366.073,76.9821 328.5,93.5C 322.754,90.5811 317.754,86.7477 313.5,82C 317.78,78.8538 322.447,76.1871 327.5,74C 364.399,58.4125 402.732,49.2459 442.5,46.5 Z"/></g>
<g><path style="opacity:0.942" fill="#1c3d5c" d="M 198.5,139.5 C 223.485,150.494 246.818,164.328 268.5,181C 291.755,199.711 312.922,220.544 332,243.5C 342.813,226.873 352.313,209.54 360.5,191.5C 361.002,190.479 361.668,190.312 362.5,191C 365.333,193.833 368.167,196.667 371,199.5C 371.667,200.5 371.667,201.5 371,202.5C 346.336,253.827 312.503,298.16 269.5,335.5C 286.042,346.397 303.042,356.397 320.5,365.5C 317.147,368.687 313.647,371.687 310,374.5C 258.767,349.949 215.1,315.616 179,271.5C 167.611,286.937 158.278,303.604 151,321.5C 149.817,322.731 148.651,322.731 147.5,321.5C 145.523,318.688 143.356,316.022 141,313.5C 140.333,312.167 140.333,310.833 141,309.5C 165.042,258.776 198.875,215.609 242.5,180C 226.175,168.339 208.842,158.506 190.5,150.5C 189.41,149.609 189.41,148.609 190.5,147.5C 193.215,144.785 195.881,142.119 198.5,139.5 Z"/></g>
<g><path style="opacity:0.881" fill="#00a9e0" d="M 157.5,179.5 C 164.236,180.535 170.236,183.202 175.5,187.5C 108.229,260.424 71.2292,346.758 64.5,446.5C 105.37,443.578 144.704,434.245 182.5,418.5C 187.555,421.45 192.388,424.783 197,428.5C 197.749,429.635 197.583,430.635 196.5,431.5C 149.326,454.922 99.3262,465.922 46.5,464.5C 45.2358,423.561 50.7358,383.561 63,344.5C 82.6415,282.531 114.142,227.531 157.5,179.5 Z"/></g>
<g><path style="opacity:0.881" fill="#00a9e0" d="M 428.5,312.5 C 430.017,312.511 431.184,313.177 432,314.5C 454.765,361.783 465.265,411.616 463.5,464C 411.045,465.968 360.712,456.635 312.5,436C 262.824,415.826 218.491,387.326 179.5,350.5C 182.059,344.632 184.892,338.965 188,333.5C 260.574,400.764 346.574,438.431 446,446.5C 444.091,405.284 434.924,365.784 418.5,328C 421.21,322.452 424.543,317.285 428.5,312.5 Z"/></g>
</svg>
